<svg width="95" height="95" viewBox="0 0 95 95" fill="none" xmlns="http://www.w3.org/2000/svg">
<path d="M47.5 0C21.3 0 0 21.3 0 47.5C0 73.7 21.3 95 47.5 95C73.7 95 95 73.7 95 47.5C95 21.3 73.7 0 47.5 0ZM65.1 53.4H53.4V65C53.4 68.3 50.7 70.9 47.5 70.9C44.3 70.9 41.6 68.2 41.6 65V53.4H29.9C26.6 53.4 24 50.7 24 47.5C24 44.3 26.7 41.6 29.9 41.6H41.5V29.9C41.5 26.6 44.2 24 47.4 24C50.6 24 53.3 26.7 53.3 29.9V41.5H64.9C68.2 41.5 70.8 44.2 70.8 47.4C70.8 50.6 68.4 53.4 65.1 53.4Z" fill="black"/>
</svg>
