<svg width="91" height="91" viewBox="0 0 91 91" fill="none" xmlns="http://www.w3.org/2000/svg">
<path fill-rule="evenodd" clip-rule="evenodd" d="M4.192 90.5H48.357C49.3352 90.4976 50.2726 90.108 50.9643 89.4163C51.656 88.7246 52.0456 87.7872 52.048 86.809V53.63C52.0456 52.6518 51.656 51.7144 50.9643 51.0227C50.2726 50.331 49.3352 49.9414 48.357 49.939H4.192C3.21364 49.9411 2.27595 50.3306 1.58405 51.0223C0.89215 51.7141 0.502378 52.6516 0.5 53.63V86.809C0.502378 87.7874 0.89215 88.7249 1.58405 89.4167C2.27595 90.1084 3.21364 90.4979 4.192 90.5ZM4.192 41.061H26.384C27.3622 41.0586 28.2996 40.669 28.9913 39.9773C29.683 39.2856 30.0726 38.3482 30.075 37.37V4.191C30.0726 3.21282 29.683 2.27538 28.9913 1.58369C28.2996 0.892012 27.3622 0.502376 26.384 0.5H4.192C3.21364 0.502112 2.27595 0.891631 1.58405 1.58334C0.89215 2.27505 0.502378 3.21264 0.5 4.191V37.37C0.502378 38.3484 0.89215 39.2859 1.58405 39.9777C2.27595 40.6694 3.21364 41.0589 4.192 41.061ZM86.809 0.5H42.644C41.6656 0.502112 40.7279 0.891631 40.036 1.58334C39.3442 2.27505 38.9544 3.21264 38.952 4.191V37.37C38.9544 38.3484 39.3442 39.2859 40.036 39.9777C40.7279 40.6694 41.6656 41.0589 42.644 41.061H86.809C87.7872 41.0586 88.7246 40.669 89.4163 39.9773C90.108 39.2856 90.4976 38.3482 90.5 37.37V4.191C90.4976 3.21282 90.108 2.27538 89.4163 1.58369C88.7246 0.892012 87.7872 0.502376 86.809 0.5ZM86.809 49.939H64.616C63.6378 49.9414 62.7004 50.331 62.0087 51.0227C61.317 51.7144 60.9274 52.6518 60.925 53.63V86.809C60.9274 87.7872 61.317 88.7246 62.0087 89.4163C62.7004 90.108 63.6378 90.4976 64.616 90.5H86.809C87.7872 90.4976 88.7246 90.108 89.4163 89.4163C90.108 88.7246 90.4976 87.7872 90.5 86.809V53.63C90.4976 52.6518 90.108 51.7144 89.4163 51.0227C88.7246 50.331 87.7872 49.9414 86.809 49.939Z" fill="black"/>
</svg>
