<svg width="96" height="96" viewBox="0 0 96 96" fill="none" xmlns="http://www.w3.org/2000/svg">
<path d="M92.3 38.3L81.7 36.5C81.1 34.6 80.3 32.8 79.4 31L85.6 22.3C86.5 21 86.4 19.2 85.3 18.1L76.8 9.6C75.7 8.5 73.9 8.3 72.6 9.3L63.9 15.5C62.2 14.6 60.3 13.8 58.4 13.2L56.7 2.7C56.4 1.1 55.1 0 53.5 0H41.5C39.9 0 38.6 1.1 38.3 2.7L36.5 13.3C34.6 13.9 32.8 14.7 31 15.6L22.3 9.4C21 8.5 19.2 8.6 18.1 9.7L9.6 18.2C8.5 19.3 8.3 21.1 9.3 22.4L15.5 31.1C14.6 32.8 13.8 34.7 13.2 36.6L2.7 38.3C1.1 38.6 0 39.9 0 41.5V53.5C0 55.1 1.1 56.4 2.7 56.7L13.3 58.5C13.9 60.4 14.7 62.2 15.6 64L9.4 72.7C8.5 74 8.6 75.8 9.7 76.9L18.2 85.4C19.3 86.5 21.1 86.7 22.4 85.7L31.1 79.5C32.8 80.4 34.7 81.2 36.6 81.8L38.4 92.4C38.7 94 40 95.1 41.6 95.1H53.6C55.2 95.1 56.5 94 56.8 92.4L58.5 81.7C60.4 81.1 62.2 80.3 64 79.4L72.7 85.6C74 86.5 75.8 86.4 76.9 85.3L85.4 76.8C86.5 75.7 86.7 73.9 85.7 72.6L79.5 63.9C80.4 62.2 81.2 60.3 81.8 58.4L92.4 56.6C94 56.3 95.1 55 95.1 53.4V41.5C95 39.9 93.9 38.6 92.3 38.3ZM47.5 64.6C38 64.6 30.4 56.9 30.4 47.5C30.4 38 38.1 30.4 47.5 30.4C56.9 30.4 64.6 38 64.6 47.5C64.6 57 57 64.6 47.5 64.6Z" fill="black"/>
</svg>
